# xmcd
#
# Track frame offsets:
#	182
#	16922
#	33912
#	51405
#	67187
#	87462
#	102980
#	121670
#	135345
#	157775
#	184257
#	201890
#	218647
#	236700
#	254612
#	271112
#
# Disc length: 3860
#
# Revision: 1
# Processed by: cddbd v1.5.1PL0 Copyright (c) Steve Scherf et al.
# Submitted via: dBpowerAMP V4.0
# Normalized: r0:TDELIM( - )
#
DISCID=dd0f1210
DTITLE=Various Artist - Unlimited Dance Vol.2, CD1
DYEAR=1993
DGENRE=Dance
TTITLE0=2 Unlimited - Tribal Dance
TTITLE1=Robin S. - Show Me Love
TTITLE2=Santa Esmeralda - Don't Let Me Be Misunderstood
TTITLE3=Reggie - Hot (Wonderful World) (radio edit)
TTITLE4=Haddaway - What Is Love
TTITLE5=Two Boys - Don't Know
TTITLE6=Shane - You Were Always On My Mind (7"mix)
TTITLE7=Jazzy Mel - Pasta
TTITLE8=Beats-O-Matic - Motorcity Mix (7"mix)
TTITLE9=Una - Can You Hear Me (trance mix)
TTITLE10=T.C. 1993 - Harmony (radio edit)
TTITLE11=Logic Dream - Get To You
TTITLE12=Grace Under Pressure - Make My Day (7"remix)
TTITLE13=Eden - Can This Be Love (Levine's mix)
TTITLE14=Synad - I'm Your Woman (radio mix)
TTITLE15=M.S.D. - Money (single version)
EXTD=
EXTT0=
EXTT1=
EXTT2=
EXTT3=
EXTT4=
EXTT5=
EXTT6=
EXTT7=
EXTT8=
EXTT9=
EXTT10=
EXTT11=
EXTT12=
EXTT13=
EXTT14=
EXTT15=
PLAYORDER=
